<svg width="47" height="35" viewBox="0 0 47 35" fill="none" xmlns="http://www.w3.org/2000/svg">
<path d="M44.899 25.5819L42.0555 24.7695C41.9328 24.7344 41.8471 24.6208 41.8471 24.4931V23.544C42.0784 23.3837 42.2991 23.2043 42.5053 23.0041C43.505 22.034 44.0555 20.7328 44.0555 19.3401V18.0304L44.3305 17.4806C44.6322 16.8771 44.7916 16.2013 44.7916 15.5266V11.9787C44.7916 11.5985 44.4834 11.2902 44.1032 11.2902H37.4779C35.0688 11.2902 33.1087 13.2502 33.1087 15.6594V15.7004C33.1087 16.2615 33.2414 16.8233 33.4923 17.3251L33.8449 18.0303V19.1548C33.8449 20.937 34.7231 22.536 36.0533 23.4982L36.0535 24.4929C36.0535 24.6463 36.0535 24.7098 35.485 24.8723L34.0976 25.2687L30.0841 23.8093C30.0985 23.6199 30.0347 23.4273 29.8965 23.2822L28.614 21.9348V19.6729C28.7496 19.5612 28.8832 19.4464 29.0128 19.3251C30.6307 17.8086 31.5586 15.6675 31.5586 13.4509V11.6445C32.0471 10.5814 32.2947 9.45647 32.2947 8.2979V0.936707C32.2947 0.556484 31.9864 0.24823 31.6062 0.24823H21.3003C17.6734 0.24823 14.7228 3.19895 14.7228 6.82575V8.29808C14.7228 9.45665 14.9703 10.5816 15.4589 11.6447V13.1989C15.4589 15.7726 16.6032 18.0912 18.4034 19.6198V21.9349L17.1209 23.2823C16.9828 23.4274 16.9189 23.62 16.9333 23.8094L12.6973 25.3496C12.3904 25.4613 12.1052 25.6124 11.8462 25.7956L11.181 25.463C13.1611 24.6011 13.7884 23.3889 13.8185 23.3287C13.9154 23.1349 13.9154 22.9067 13.8185 22.7129C13.3221 21.7203 13.262 19.9007 13.2137 18.4388C13.1976 17.9521 13.1824 17.4923 13.1533 17.0829C12.9186 13.7806 10.4081 11.2902 7.31364 11.2902C4.21917 11.2902 1.70862 13.7805 1.47398 17.0829C1.44488 17.4924 1.42964 17.9522 1.41358 18.439C1.36529 19.9008 1.30508 21.7202 0.808822 22.7129C0.711885 22.9066 0.711885 23.1348 0.808822 23.3286C0.838932 23.3888 1.46489 24.5985 3.4489 25.4614L1.6013 26.3852C0.61357 26.8794 0 27.8722 0 28.9764V34.0628C0 34.443 0.308254 34.7513 0.688477 34.7513C1.0687 34.7513 1.37695 34.443 1.37695 34.0628V28.9764C1.37695 28.397 1.69888 27.8761 2.21708 27.6169L4.51778 26.4666L5.31807 27.2271C5.87766 27.7589 6.59551 28.0247 7.31364 28.0247C8.03158 28.0247 8.7498 27.7587 9.30921 27.2271L10.1094 26.4667L10.8596 26.8418C10.5063 27.407 10.3059 28.0698 10.3059 28.764V34.063C10.3059 34.4432 10.6141 34.7515 10.9943 34.7515C11.3746 34.7515 11.6828 34.4432 11.6828 34.063V28.764C11.6828 27.8189 12.2796 26.9668 13.1679 26.6438L17.634 25.0198L19.4932 27.8087C19.7308 28.1652 20.1117 28.3939 20.5381 28.4361C20.5856 28.4408 20.6329 28.4431 20.6801 28.4431C21.0563 28.4431 21.4166 28.295 21.6859 28.0258L22.8202 26.8915V34.0631C22.8202 34.4433 23.1284 34.7516 23.5086 34.7516C23.8889 34.7516 24.1971 34.4433 24.1971 34.0631V26.8915L25.3313 28.0258C25.6006 28.2951 25.9609 28.4432 26.3372 28.4432C26.3843 28.4432 26.4316 28.4409 26.4791 28.4362C26.9056 28.394 27.2864 28.1653 27.5241 27.8088L29.3834 25.02L33.8494 26.644C34.7376 26.967 35.3345 27.8191 35.3345 28.7642V34.0632C35.3345 34.4434 35.6427 34.7516 36.0229 34.7516C36.4032 34.7516 36.7114 34.4434 36.7114 34.0632V28.7642C36.7114 27.8069 36.3311 26.9092 35.6931 26.2452L35.8632 26.1966C36.0348 26.1476 36.2689 26.0805 36.5039 25.9653L38.2617 27.7231V34.0632C38.2617 34.4434 38.5699 34.7516 38.9501 34.7516C39.3304 34.7516 39.6386 34.4434 39.6386 34.0632V27.7231L41.3842 25.9775C41.477 26.0247 41.5745 26.0645 41.6772 26.0938L44.5207 26.9062C45.1697 27.0917 45.623 27.6927 45.623 28.3677V34.0632C45.623 34.4434 45.9313 34.7516 46.3115 34.7516C46.6917 34.7516 47 34.4434 47 34.0632V28.3677C47 27.0809 46.136 25.9354 44.899 25.5819ZM4.41681 24.3658C3.12899 23.9025 2.48301 23.2847 2.20726 22.9473C2.39526 22.4558 2.51716 21.8929 2.59969 21.2987C2.97936 22.2091 3.61524 22.9862 4.41681 23.5407V24.3658ZM8.36086 26.2291C7.77363 26.7871 6.85374 26.787 6.2667 26.229L5.62641 25.6206C5.73446 25.4182 5.79385 25.1887 5.79385 24.9483V24.2145C6.27413 24.3646 6.78471 24.4455 7.31382 24.4455C7.8423 24.4455 8.3526 24.3642 8.8337 24.2149L8.83361 24.9482C8.83361 25.1887 8.89291 25.4183 9.00105 25.6208L8.36086 26.2291ZM7.31401 23.0686C5.25813 23.0686 3.58568 21.396 3.58568 19.3402C3.58568 18.96 3.27742 18.6518 2.8972 18.6518C2.85865 18.6518 2.82101 18.6557 2.7842 18.6619C2.78622 18.6026 2.78815 18.5433 2.79017 18.4847C2.8055 18.0113 2.82028 17.5641 2.84754 17.1806C2.93548 15.9436 3.42981 14.8036 4.23945 13.9707C5.05636 13.1302 6.14819 12.6673 7.31382 12.6673C8.47946 12.6673 9.5712 13.1302 10.3882 13.9707C11.1978 14.8036 11.6922 15.9436 11.7801 17.1806C11.8073 17.5641 11.8222 18.0111 11.8378 18.4844C11.8391 18.5251 11.8405 18.5663 11.8419 18.6072C11.0928 17.4532 9.936 16.6027 8.44127 16.1224C7.06037 15.6787 5.8727 15.7062 5.82258 15.7075C5.64229 15.7125 5.47119 15.788 5.34607 15.9178L4.10387 17.2061C3.83996 17.4798 3.84785 17.9156 4.12159 18.1796C4.39533 18.4435 4.83118 18.4355 5.09509 18.1618L6.12873 17.0899C7.01888 17.1334 9.88267 17.4665 10.9964 19.919C10.7162 21.7263 9.1628 23.0686 7.31401 23.0686ZM10.2105 24.3681L10.2106 23.547C11.0115 22.9956 11.6483 22.2199 12.0282 21.3027C12.1108 21.8955 12.2326 22.4571 12.4202 22.9475C12.146 23.2816 11.497 23.9049 10.2105 24.3681ZM16.8358 13.1988V11.4907C16.8358 11.387 16.8124 11.2847 16.7673 11.1913C16.3243 10.2739 16.0997 9.3005 16.0997 8.29808V6.82584C16.0997 3.9582 18.4327 1.62528 21.3003 1.62528H30.9177V8.29817C30.9177 9.3006 30.6931 10.274 30.2501 11.1914C30.205 11.2848 30.1816 11.3871 30.1816 11.4908V13.4511C30.1816 15.3156 29.4321 17.0449 28.0711 18.3206C27.9012 18.4798 27.7249 18.6291 27.5426 18.7682C27.5385 18.7709 27.5347 18.7739 27.5307 18.7768C26.2557 19.7448 24.6941 20.2152 23.0632 20.1096C19.5712 19.8835 16.8358 16.848 16.8358 13.1988ZM20.7123 27.052C20.7075 27.0568 20.6964 27.0681 20.6739 27.0657C20.6515 27.0635 20.6427 27.0504 20.639 27.0447L18.4978 23.8329L19.1868 23.1089L22.4351 25.3292L20.7123 27.052ZM23.5087 24.3951L19.7804 21.8467V20.5615C20.7451 21.083 21.8253 21.4092 22.9741 21.4835C23.1556 21.4953 23.336 21.501 23.5158 21.501C24.8322 21.501 26.0992 21.1864 27.237 20.589V21.8467L23.5087 24.3951ZM26.3785 27.0448C26.3747 27.0505 26.3659 27.0637 26.3435 27.0659C26.321 27.0687 26.31 27.0569 26.3051 27.0522L24.5824 25.3294L27.8306 23.109L28.5197 23.833L26.3785 27.0448ZM38.9501 26.4639L37.3878 24.9017C37.415 24.7778 37.4305 24.6422 37.4304 24.4927L37.4303 24.2022C37.8638 24.3444 38.3208 24.4289 38.7936 24.443C38.8467 24.4447 38.8993 24.4454 38.9522 24.4454C39.4747 24.4454 39.9847 24.3665 40.4701 24.2158V24.4931C40.4701 24.6304 40.4874 24.765 40.5199 24.8943L38.9501 26.4639ZM41.5464 22.016C40.8167 22.7241 39.8528 23.0981 38.835 23.0667C36.8427 23.007 35.2218 21.2521 35.2218 19.155V17.8679C35.2218 17.761 35.1969 17.6556 35.1491 17.56L34.7238 16.7094C34.568 16.3978 34.4857 16.049 34.4857 15.7005V15.6595C34.4857 14.0095 35.828 12.6672 37.4779 12.6672H43.4147V15.5267C43.4147 15.9888 43.3055 16.4516 43.0988 16.8649L42.7513 17.56C42.7034 17.6557 42.6786 17.761 42.6786 17.8679V19.3401C42.6786 20.3573 42.2765 21.3075 41.5464 22.016Z" fill="white"/>
</svg>
